<svg width="80" height="80" viewBox="0 0 80 80" fill="none" xmlns="http://www.w3.org/2000/svg">
<path fill-rule="evenodd" clip-rule="evenodd" d="M22.4546 13.3335C15.5245 13.3335 8.33301 19.6016 8.33301 28.3785C8.33301 38.7364 16.0783 48.2461 24.537 55.4474C28.6897 58.9828 32.8549 61.8265 35.9878 63.7881C37.5517 64.7673 38.8519 65.5226 39.756 66.0306C39.8408 66.0782 39.922 66.1236 39.9997 66.1668C40.0773 66.1236 40.1586 66.0782 40.2433 66.0306C41.1475 65.5226 42.4476 64.7673 44.0115 63.7881C47.1445 61.8265 51.3096 58.9828 55.4624 55.4474C63.921 48.2461 71.6663 38.7364 71.6663 28.3785C71.6663 19.6016 64.4748 13.3335 57.5447 13.3335C50.5268 13.3335 44.8754 17.9635 42.3714 25.4754C42.0311 26.4963 41.0758 27.1848 39.9997 27.1848C38.9236 27.1848 37.9683 26.4963 37.628 25.4754C35.124 17.9635 29.4725 13.3335 22.4546 13.3335ZM39.9997 69.0092L41.1417 71.2331C40.4248 71.6012 39.5745 71.6012 38.8577 71.2331L39.9997 69.0092ZM3.33301 28.3785C3.33301 16.8402 12.7631 8.3335 22.4546 8.3335C30.099 8.3335 36.2689 12.4209 39.9997 18.6829C43.7304 12.4209 49.9003 8.3335 57.5447 8.3335C67.2362 8.3335 76.6663 16.8402 76.6663 28.3785C76.6663 41.1062 67.3283 51.9119 58.7036 59.2545C54.3147 62.991 49.9382 65.9765 46.6649 68.026C45.0257 69.0524 43.6566 69.8481 42.6922 70.3898C42.2099 70.6608 41.8284 70.8684 41.5645 71.0099C41.4325 71.0806 41.3299 71.1349 41.2587 71.1722L41.1759 71.2154L41.1526 71.2275L41.1456 71.2311C41.1447 71.2315 41.1417 71.2331 39.9997 69.0092C38.8577 71.2331 38.8585 71.2335 38.8577 71.2331L38.8468 71.2275L38.8235 71.2154L38.7406 71.1722C38.6694 71.1349 38.5668 71.0806 38.4349 71.0099C38.1709 70.8684 37.7894 70.6608 37.3071 70.3898C36.3428 69.8481 34.9737 69.0524 33.3344 68.026C30.0611 65.9765 25.6846 62.991 21.2957 59.2545C12.671 51.9119 3.33301 41.1062 3.33301 28.3785Z" fill="#1551B1"/>
</svg>
