<svg width="80" height="80" viewBox="0 0 80 80" fill="none" xmlns="http://www.w3.org/2000/svg">
<path fill-rule="evenodd" clip-rule="evenodd" d="M39.9997 8.3335C27.2997 8.3335 18.333 17.4768 18.333 28.7302C18.333 33.8502 20.4397 37.3035 23.083 40.5968C23.6563 41.3135 24.2397 42.0035 24.8397 42.7135L25.1597 43.0868C25.8597 43.9202 26.583 44.7802 27.2597 45.6668C28.6063 47.4368 29.8697 49.4268 30.5763 51.7802C30.7494 52.4095 30.6695 53.0816 30.3536 53.6528C30.0378 54.224 29.5111 54.649 28.886 54.8371C28.261 55.0251 27.5872 54.9612 27.0086 54.6591C26.43 54.357 25.9926 53.8405 25.7897 53.2202C25.3297 51.6868 24.4663 50.2535 23.2797 48.6968C22.653 47.8874 22.0061 47.0938 21.3397 46.3168L21.033 45.9502C20.433 45.2435 19.7997 44.4968 19.183 43.7268C16.233 40.0535 13.333 35.5035 13.333 28.7268C13.333 14.5435 24.7163 3.3335 39.9997 3.3335C55.283 3.3335 66.6663 14.5402 66.6663 28.7302C66.6663 35.5035 63.7663 40.0535 60.8163 43.7302C60.1997 44.4968 59.5663 45.2435 58.9663 45.9535L58.6597 46.3168C57.9597 47.1435 57.3097 47.9202 56.7197 48.6968C55.533 50.2535 54.6697 51.6902 54.2097 53.2202C54.0187 53.8554 53.5833 54.3887 52.9991 54.7028C52.4149 55.0169 51.7299 55.0861 51.0947 54.8952C50.4595 54.7042 49.9262 54.2687 49.612 53.6846C49.2979 53.1004 49.2287 52.4154 49.4197 51.7802C50.1297 49.4268 51.393 47.4368 52.743 45.6668C53.4163 44.7802 54.1397 43.9202 54.843 43.0868L55.1597 42.7135C55.7597 42.0035 56.343 41.3135 56.9163 40.6002C59.5597 37.3002 61.6663 33.8502 61.6663 28.7302C61.6663 17.4768 52.6997 8.3335 39.9997 8.3335ZM31.6663 72.5002C31.6663 71.8371 31.9297 71.2012 32.3986 70.7324C32.8674 70.2636 33.5033 70.0002 34.1663 70.0002H45.833C46.496 70.0002 47.1319 70.2636 47.6008 70.7324C48.0696 71.2012 48.333 71.8371 48.333 72.5002C48.333 73.1632 48.0696 73.7991 47.6008 74.2679C47.1319 74.7368 46.496 75.0002 45.833 75.0002H34.1663C33.5033 75.0002 32.8674 74.7368 32.3986 74.2679C31.9297 73.7991 31.6663 73.1632 31.6663 72.5002ZM29.1663 60.0002C28.5033 60.0002 27.8674 60.2636 27.3986 60.7324C26.9297 61.2012 26.6663 61.8371 26.6663 62.5002C26.6663 63.1632 26.9297 63.7991 27.3986 64.2679C27.8674 64.7368 28.5033 65.0002 29.1663 65.0002H50.833C51.496 65.0002 52.1319 64.7368 52.6008 64.2679C53.0696 63.7991 53.333 63.1632 53.333 62.5002C53.333 61.8371 53.0696 61.2012 52.6008 60.7324C52.1319 60.2636 51.496 60.0002 50.833 60.0002H29.1663Z" fill="#1551B1"/>
</svg>
