<svg width="80" height="80" viewBox="0 0 80 80" fill="none" xmlns="http://www.w3.org/2000/svg">
<path fill-rule="evenodd" clip-rule="evenodd" d="M57.5419 7.25542C59.82 4.97736 63.5135 4.97736 65.7915 7.25542L74.4108 15.8747C76.6889 18.1528 76.6889 21.8462 74.4108 24.1243L65.1012 33.4339L65.0596 33.4746L28.966 67.9275C28.3066 68.557 27.5088 69.0231 26.6367 69.2885L8.22797 74.8912C7.34469 75.16 6.38515 74.9201 5.7323 74.2673C5.07944 73.6144 4.83956 72.6549 5.10838 71.7716L10.6871 53.4417C10.9792 52.4817 11.514 51.6134 12.2399 50.9205L48.2529 16.5445L57.5419 7.25542ZM49.9594 21.8277L15.6923 54.5373C15.5886 54.6363 15.5122 54.7603 15.4704 54.8975L11.2566 68.743L25.1809 64.5052C25.3055 64.4672 25.4194 64.4006 25.5136 64.3107L59.7563 31.6246L49.9594 21.8277ZM63.3334 28.1306L70.8753 20.5888C71.2007 20.2633 71.2007 19.7357 70.8753 19.4102L62.256 10.791C61.9306 10.4655 61.4029 10.4655 61.0775 10.791L53.5356 18.3328L63.3334 28.1306Z" fill="#1551B1"/>
</svg>
